<svg width="32" height="32" viewBox="0 0 32 32" fill="none" xmlns="http://www.w3.org/2000/svg">
<g clip-path="url(#clip0_122_1275)">
<path d="M31.937 6.0929C30.76 6.6089 29.5 6.9639 28.172 7.1249C29.527 6.3119 30.563 5.0259 31.057 3.4939C29.786 4.2339 28.38 4.7699 26.885 5.0729C25.693 3.7969 23.989 2.9939 22.098 2.9939C18.473 2.9939 15.535 5.9309 15.535 9.5509C15.535 10.0719 15.598 10.5719 15.707 11.0459C10.254 10.7909 5.42 8.1709 2.187 4.2129C1.619 5.1769 1.296 6.2969 1.296 7.5159C1.296 9.7969 2.457 11.7969 4.212 12.9729C3.139 12.9419 2.129 12.6449 1.244 12.1559V12.2349C1.244 15.4159 3.504 18.0679 6.504 18.6719C5.957 18.8169 5.373 18.9009 4.78 18.9009C4.359 18.9009 3.957 18.8599 3.556 18.7859C4.4 21.3899 6.816 23.2859 9.696 23.3429C7.457 25.0979 4.619 26.1439 1.561 26.1439C1.04 26.1439 0.520001 26.1189 -0.0019989 26.0559C2.915 27.9159 6.358 29.0039 10.077 29.0039C22.144 29.0039 28.738 19.0089 28.738 10.3529C28.738 10.0769 28.738 9.7959 28.717 9.5139C30.004 8.5969 31.118 7.4349 31.998 6.1179L31.937 6.0929Z" fill="white"/>
</g>
<defs>
<clipPath id="clip0_122_1275">
<rect width="32" height="32" fill="white"/>
</clipPath>
</defs>
</svg>
